<svg xmlns="http://www.w3.org/2000/svg" viewBox="42.4 154.5 939.5 715.3" fill="#000">
<circle cx="920" cy="168" r="3.49"/>
<circle cx="936" cy="168" r="3.14"/>
<circle cx="920" cy="184" r="3.43"/>
<circle cx="936" cy="184" r="3.11"/>
<circle cx="904" cy="200" r="3.21"/>
<circle cx="920" cy="200" r="3.84"/>
<circle cx="904" cy="216" r="3.38"/>
<circle cx="920" cy="216" r="3.68"/>
<circle cx="872" cy="232" r="3.55"/>
<circle cx="888" cy="232" r="3.87"/>
<circle cx="904" cy="232" r="4.0"/>
<circle cx="920" cy="232" r="4.12"/>
<circle cx="856" cy="248" r="3.53"/>
<circle cx="872" cy="248" r="4.21"/>
<circle cx="888" cy="248" r="4.16"/>
<circle cx="904" cy="248" r="3.92"/>
<circle cx="920" cy="248" r="4.18"/>
<circle cx="936" cy="248" r="3.16"/>
<circle cx="824" cy="264" r="3.2"/>
<circle cx="840" cy="264" r="3.79"/>
<circle cx="856" cy="264" r="3.75"/>
<circle cx="872" cy="264" r="3.64"/>
<circle cx="888" cy="264" r="3.66"/>
<circle cx="904" cy="264" r="3.81"/>
<circle cx="920" cy="264" r="3.67"/>
<circle cx="936" cy="264" r="3.73"/>
<circle cx="952" cy="264" r="3.79"/>
<circle cx="968" cy="264" r="3.33"/>
<circle cx="808" cy="280" r="3.32"/>
<circle cx="824" cy="280" r="3.49"/>
<circle cx="840" cy="280" r="3.5"/>
<circle cx="856" cy="280" r="3.72"/>
<circle cx="872" cy="280" r="3.72"/>
<circle cx="888" cy="280" r="3.85"/>
<circle cx="904" cy="280" r="3.75"/>
<circle cx="920" cy="280" r="3.96"/>
<circle cx="936" cy="280" r="4.05"/>
<circle cx="952" cy="280" r="3.9"/>
<circle cx="968" cy="280" r="3.53"/>
<circle cx="792" cy="296" r="3.16"/>
<circle cx="808" cy="296" r="3.44"/>
<circle cx="824" cy="296" r="3.96"/>
<circle cx="840" cy="296" r="4.11"/>
<circle cx="856" cy="296" r="4.04"/>
<circle cx="872" cy="296" r="4.32"/>
<circle cx="888" cy="296" r="4.09"/>
<circle cx="904" cy="296" r="4.08"/>
<circle cx="920" cy="296" r="4.08"/>
<circle cx="936" cy="296" r="3.98"/>
<circle cx="952" cy="296" r="4.02"/>
<circle cx="968" cy="296" r="3.88"/>
<circle cx="776" cy="312" r="3.46"/>
<circle cx="792" cy="312" r="3.85"/>
<circle cx="808" cy="312" r="3.97"/>
<circle cx="824" cy="312" r="4.53"/>
<circle cx="840" cy="312" r="4.57"/>
<circle cx="856" cy="312" r="4.15"/>
<circle cx="872" cy="312" r="4.39"/>
<circle cx="888" cy="312" r="4.42"/>
<circle cx="904" cy="312" r="4.24"/>
<circle cx="920" cy="312" r="4.23"/>
<circle cx="936" cy="312" r="4.07"/>
<circle cx="952" cy="312" r="3.64"/>
<circle cx="760" cy="328" r="3.42"/>
<circle cx="776" cy="328" r="4.3"/>
<circle cx="792" cy="328" r="3.96"/>
<circle cx="808" cy="328" r="4.11"/>
<circle cx="824" cy="328" r="4.15"/>
<circle cx="840" cy="328" r="3.91"/>
<circle cx="856" cy="328" r="4.16"/>
<circle cx="872" cy="328" r="4.1"/>
<circle cx="888" cy="328" r="3.99"/>
<circle cx="904" cy="328" r="3.85"/>
<circle cx="920" cy="328" r="3.91"/>
<circle cx="936" cy="328" r="3.78"/>
<circle cx="968" cy="328" r="3.4"/>
<circle cx="744" cy="344" r="3.31"/>
<circle cx="760" cy="344" r="3.98"/>
<circle cx="776" cy="344" r="4.43"/>
<circle cx="792" cy="344" r="4.21"/>
<circle cx="808" cy="344" r="4.13"/>
<circle cx="824" cy="344" r="4.08"/>
<circle cx="840" cy="344" r="4.01"/>
<circle cx="856" cy="344" r="4.25"/>
<circle cx="872" cy="344" r="4.08"/>
<circle cx="888" cy="344" r="4.15"/>
<circle cx="904" cy="344" r="3.82"/>
<circle cx="920" cy="344" r="3.98"/>
<circle cx="936" cy="344" r="4.03"/>
<circle cx="952" cy="344" r="3.64"/>
<circle cx="744" cy="360" r="3.55"/>
<circle cx="760" cy="360" r="3.6"/>
<circle cx="776" cy="360" r="3.88"/>
<circle cx="792" cy="360" r="4.12"/>
<circle cx="808" cy="360" r="4.37"/>
<circle cx="824" cy="360" r="4.48"/>
<circle cx="840" cy="360" r="4.66"/>
<circle cx="856" cy="360" r="4.21"/>
<circle cx="872" cy="360" r="4.1"/>
<circle cx="888" cy="360" r="3.95"/>
<circle cx="904" cy="360" r="4.05"/>
<circle cx="920" cy="360" r="4.29"/>
<circle cx="936" cy="360" r="4.33"/>
<circle cx="952" cy="360" r="4.36"/>
<circle cx="968" cy="360" r="3.72"/>
<circle cx="728" cy="376" r="3.99"/>
<circle cx="744" cy="376" r="4.4"/>
<circle cx="760" cy="376" r="4.3"/>
<circle cx="776" cy="376" r="4.36"/>
<circle cx="792" cy="376" r="4.04"/>
<circle cx="808" cy="376" r="4.29"/>
<circle cx="824" cy="376" r="4.08"/>
<circle cx="840" cy="376" r="3.99"/>
<circle cx="856" cy="376" r="4.16"/>
<circle cx="872" cy="376" r="4.39"/>
<circle cx="888" cy="376" r="4.15"/>
<circle cx="904" cy="376" r="4.31"/>
<circle cx="920" cy="376" r="4.11"/>
<circle cx="936" cy="376" r="4.15"/>
<circle cx="952" cy="376" r="3.74"/>
<circle cx="968" cy="376" r="3.95"/>
<circle cx="696" cy="392" r="3.54"/>
<circle cx="712" cy="392" r="4.28"/>
<circle cx="728" cy="392" r="4.17"/>
<circle cx="744" cy="392" r="4.02"/>
<circle cx="760" cy="392" r="4.28"/>
<circle cx="776" cy="392" r="4.37"/>
<circle cx="792" cy="392" r="4.09"/>
<circle cx="808" cy="392" r="4.37"/>
<circle cx="824" cy="392" r="4.2"/>
<circle cx="840" cy="392" r="4.54"/>
<circle cx="856" cy="392" r="4.43"/>
<circle cx="872" cy="392" r="4.1"/>
<circle cx="888" cy="392" r="3.44"/>
<circle cx="904" cy="392" r="3.73"/>
<circle cx="920" cy="392" r="4.13"/>
<circle cx="936" cy="392" r="3.67"/>
<circle cx="952" cy="392" r="3.38"/>
<circle cx="680" cy="408" r="3.43"/>
<circle cx="696" cy="408" r="3.93"/>
<circle cx="712" cy="408" r="3.8"/>
<circle cx="728" cy="408" r="4.18"/>
<circle cx="744" cy="408" r="4.08"/>
<circle cx="760" cy="408" r="4.26"/>
<circle cx="776" cy="408" r="4.39"/>
<circle cx="792" cy="408" r="4.49"/>
<circle cx="808" cy="408" r="4.2"/>
<circle cx="824" cy="408" r="3.98"/>
<circle cx="840" cy="408" r="3.72"/>
<circle cx="856" cy="408" r="3.4"/>
<circle cx="904" cy="408" r="3.41"/>
<circle cx="920" cy="408" r="3.95"/>
<circle cx="936" cy="408" r="3.68"/>
<circle cx="952" cy="408" r="3.18"/>
<circle cx="648" cy="424" r="3.35"/>
<circle cx="664" cy="424" r="3.62"/>
<circle cx="680" cy="424" r="4.19"/>
<circle cx="696" cy="424" r="4.24"/>
<circle cx="712" cy="424" r="4.18"/>
<circle cx="728" cy="424" r="3.95"/>
<circle cx="744" cy="424" r="4.09"/>
<circle cx="760" cy="424" r="3.93"/>
<circle cx="776" cy="424" r="4.08"/>
<circle cx="792" cy="424" r="4.2"/>
<circle cx="808" cy="424" r="4.3"/>
<circle cx="824" cy="424" r="4.18"/>
<circle cx="840" cy="424" r="4.04"/>
<circle cx="904" cy="424" r="3.27"/>
<circle cx="920" cy="424" r="3.28"/>
<circle cx="648" cy="440" r="4.02"/>
<circle cx="664" cy="440" r="4.0"/>
<circle cx="680" cy="440" r="3.93"/>
<circle cx="696" cy="440" r="4.19"/>
<circle cx="712" cy="440" r="3.96"/>
<circle cx="728" cy="440" r="4.08"/>
<circle cx="744" cy="440" r="3.91"/>
<circle cx="760" cy="440" r="3.48"/>
<circle cx="776" cy="440" r="3.68"/>
<circle cx="792" cy="440" r="3.86"/>
<circle cx="808" cy="440" r="3.93"/>
<circle cx="824" cy="440" r="4.35"/>
<circle cx="840" cy="440" r="3.85"/>
<circle cx="856" cy="440" r="3.52"/>
<circle cx="648" cy="456" r="3.49"/>
<circle cx="664" cy="456" r="3.65"/>
<circle cx="680" cy="456" r="4.28"/>
<circle cx="696" cy="456" r="4.3"/>
<circle cx="712" cy="456" r="4.36"/>
<circle cx="728" cy="456" r="4.38"/>
<circle cx="744" cy="456" r="4.05"/>
<circle cx="760" cy="456" r="4.07"/>
<circle cx="776" cy="456" r="3.96"/>
<circle cx="792" cy="456" r="3.72"/>
<circle cx="808" cy="456" r="3.76"/>
<circle cx="824" cy="456" r="3.66"/>
<circle cx="840" cy="456" r="3.99"/>
<circle cx="856" cy="456" r="3.76"/>
<circle cx="632" cy="472" r="3.73"/>
<circle cx="648" cy="472" r="3.94"/>
<circle cx="664" cy="472" r="3.85"/>
<circle cx="680" cy="472" r="4.03"/>
<circle cx="696" cy="472" r="3.95"/>
<circle cx="712" cy="472" r="4.22"/>
<circle cx="728" cy="472" r="4.46"/>
<circle cx="744" cy="472" r="4.56"/>
<circle cx="760" cy="472" r="4.64"/>
<circle cx="776" cy="472" r="4.44"/>
<circle cx="792" cy="472" r="4.45"/>
<circle cx="808" cy="472" r="4.0"/>
<circle cx="824" cy="472" r="4.02"/>
<circle cx="840" cy="472" r="3.62"/>
<circle cx="856" cy="472" r="3.46"/>
<circle cx="200" cy="488" r="3.5"/>
<circle cx="600" cy="488" r="3.1"/>
<circle cx="616" cy="488" r="4.1"/>
<circle cx="632" cy="488" r="4.97"/>
<circle cx="648" cy="488" r="4.74"/>
<circle cx="664" cy="488" r="4.4"/>
<circle cx="680" cy="488" r="4.1"/>
<circle cx="696" cy="488" r="4.07"/>
<circle cx="712" cy="488" r="3.97"/>
<circle cx="728" cy="488" r="4.24"/>
<circle cx="744" cy="488" r="4.73"/>
<circle cx="760" cy="488" r="4.75"/>
<circle cx="776" cy="488" r="4.86"/>
<circle cx="792" cy="488" r="4.84"/>
<circle cx="808" cy="488" r="4.51"/>
<circle cx="824" cy="488" r="4.26"/>
<circle cx="840" cy="488" r="4.06"/>
<circle cx="856" cy="488" r="3.67"/>
<circle cx="616" cy="504" r="4.33"/>
<circle cx="632" cy="504" r="4.86"/>
<circle cx="648" cy="504" r="5.03"/>
<circle cx="664" cy="504" r="4.56"/>
<circle cx="680" cy="504" r="4.27"/>
<circle cx="696" cy="504" r="4.14"/>
<circle cx="712" cy="504" r="4.27"/>
<circle cx="728" cy="504" r="4.01"/>
<circle cx="744" cy="504" r="4.35"/>
<circle cx="760" cy="504" r="4.28"/>
<circle cx="776" cy="504" r="4.62"/>
<circle cx="792" cy="504" r="4.59"/>
<circle cx="808" cy="504" r="4.68"/>
<circle cx="824" cy="504" r="4.36"/>
<circle cx="840" cy="504" r="3.96"/>
<circle cx="856" cy="504" r="3.91"/>
<circle cx="56" cy="520" r="3.38"/>
<circle cx="248" cy="520" r="3.19"/>
<circle cx="376" cy="520" r="3.3"/>
<circle cx="392" cy="520" r="3.85"/>
<circle cx="536" cy="520" r="3.13"/>
<circle cx="600" cy="520" r="3.42"/>
<circle cx="616" cy="520" r="4.07"/>
<circle cx="632" cy="520" r="4.73"/>
<circle cx="648" cy="520" r="4.6"/>
<circle cx="664" cy="520" r="4.65"/>
<circle cx="680" cy="520" r="4.44"/>
<circle cx="696" cy="520" r="4.05"/>
<circle cx="712" cy="520" r="4.28"/>
<circle cx="728" cy="520" r="4.01"/>
<circle cx="744" cy="520" r="3.88"/>
<circle cx="760" cy="520" r="4.14"/>
<circle cx="776" cy="520" r="4.51"/>
<circle cx="792" cy="520" r="4.78"/>
<circle cx="808" cy="520" r="4.6"/>
<circle cx="824" cy="520" r="4.07"/>
<circle cx="840" cy="520" r="3.77"/>
<circle cx="856" cy="520" r="3.84"/>
<circle cx="56" cy="536" r="3.31"/>
<circle cx="72" cy="536" r="3.56"/>
<circle cx="88" cy="536" r="3.52"/>
<circle cx="456" cy="536" r="3.33"/>
<circle cx="472" cy="536" r="3.5"/>
<circle cx="568" cy="536" r="3.44"/>
<circle cx="584" cy="536" r="3.31"/>
<circle cx="600" cy="536" r="4.15"/>
<circle cx="616" cy="536" r="4.28"/>
<circle cx="632" cy="536" r="4.62"/>
<circle cx="648" cy="536" r="4.23"/>
<circle cx="664" cy="536" r="3.94"/>
<circle cx="680" cy="536" r="3.89"/>
<circle cx="696" cy="536" r="4.03"/>
<circle cx="712" cy="536" r="3.86"/>
<circle cx="728" cy="536" r="4.08"/>
<circle cx="744" cy="536" r="4.28"/>
<circle cx="760" cy="536" r="4.19"/>
<circle cx="776" cy="536" r="4.35"/>
<circle cx="792" cy="536" r="4.29"/>
<circle cx="808" cy="536" r="4.32"/>
<circle cx="824" cy="536" r="4.15"/>
<circle cx="840" cy="536" r="3.96"/>
<circle cx="856" cy="536" r="3.73"/>
<circle cx="872" cy="536" r="3.28"/>
<circle cx="888" cy="536" r="3.41"/>
<circle cx="56" cy="552" r="3.56"/>
<circle cx="72" cy="552" r="3.42"/>
<circle cx="88" cy="552" r="3.48"/>
<circle cx="248" cy="552" r="3.23"/>
<circle cx="264" cy="552" r="3.12"/>
<circle cx="456" cy="552" r="3.36"/>
<circle cx="472" cy="552" r="3.55"/>
<circle cx="488" cy="552" r="3.13"/>
<circle cx="552" cy="552" r="3.56"/>
<circle cx="568" cy="552" r="3.91"/>
<circle cx="584" cy="552" r="3.41"/>
<circle cx="600" cy="552" r="3.96"/>
<circle cx="616" cy="552" r="3.91"/>
<circle cx="632" cy="552" r="4.16"/>
<circle cx="648" cy="552" r="3.9"/>
<circle cx="664" cy="552" r="3.69"/>
<circle cx="680" cy="552" r="3.7"/>
<circle cx="696" cy="552" r="3.69"/>
<circle cx="712" cy="552" r="3.99"/>
<circle cx="728" cy="552" r="4.14"/>
<circle cx="744" cy="552" r="4.42"/>
<circle cx="760" cy="552" r="4.26"/>
<circle cx="776" cy="552" r="4.36"/>
<circle cx="792" cy="552" r="4.03"/>
<circle cx="808" cy="552" r="4.16"/>
<circle cx="824" cy="552" r="3.65"/>
<circle cx="840" cy="552" r="3.65"/>
<circle cx="856" cy="552" r="3.52"/>
<circle cx="872" cy="552" r="3.81"/>
<circle cx="888" cy="552" r="3.62"/>
<circle cx="56" cy="568" r="3.38"/>
<circle cx="72" cy="568" r="3.66"/>
<circle cx="88" cy="568" r="3.47"/>
<circle cx="232" cy="568" r="3.71"/>
<circle cx="248" cy="568" r="4.3"/>
<circle cx="264" cy="568" r="4.49"/>
<circle cx="280" cy="568" r="4.77"/>
<circle cx="296" cy="568" r="4.18"/>
<circle cx="312" cy="568" r="3.98"/>
<circle cx="328" cy="568" r="4.37"/>
<circle cx="344" cy="568" r="4.08"/>
<circle cx="360" cy="568" r="3.97"/>
<circle cx="376" cy="568" r="3.61"/>
<circle cx="392" cy="568" r="3.64"/>
<circle cx="408" cy="568" r="3.8"/>
<circle cx="424" cy="568" r="3.42"/>
<circle cx="504" cy="568" r="3.65"/>
<circle cx="520" cy="568" r="3.72"/>
<circle cx="536" cy="568" r="3.74"/>
<circle cx="552" cy="568" r="3.86"/>
<circle cx="568" cy="568" r="3.69"/>
<circle cx="584" cy="568" r="3.92"/>
<circle cx="600" cy="568" r="3.8"/>
<circle cx="616" cy="568" r="3.95"/>
<circle cx="632" cy="568" r="3.78"/>
<circle cx="648" cy="568" r="4.21"/>
<circle cx="664" cy="568" r="4.08"/>
<circle cx="680" cy="568" r="4.5"/>
<circle cx="696" cy="568" r="4.51"/>
<circle cx="712" cy="568" r="4.51"/>
<circle cx="728" cy="568" r="4.16"/>
<circle cx="744" cy="568" r="3.87"/>
<circle cx="760" cy="568" r="3.74"/>
<circle cx="776" cy="568" r="3.84"/>
<circle cx="792" cy="568" r="3.64"/>
<circle cx="808" cy="568" r="3.48"/>
<circle cx="824" cy="568" r="3.53"/>
<circle cx="840" cy="568" r="3.46"/>
<circle cx="856" cy="568" r="3.59"/>
<circle cx="872" cy="568" r="3.98"/>
<circle cx="888" cy="568" r="3.45"/>
<circle cx="72" cy="584" r="3.48"/>
<circle cx="88" cy="584" r="3.57"/>
<circle cx="104" cy="584" r="3.18"/>
<circle cx="200" cy="584" r="3.3"/>
<circle cx="216" cy="584" r="3.61"/>
<circle cx="232" cy="584" r="3.85"/>
<circle cx="248" cy="584" r="4.21"/>
<circle cx="264" cy="584" r="4.23"/>
<circle cx="280" cy="584" r="4.16"/>
<circle cx="296" cy="584" r="4.31"/>
<circle cx="312" cy="584" r="4.14"/>
<circle cx="328" cy="584" r="4.25"/>
<circle cx="344" cy="584" r="4.3"/>
<circle cx="360" cy="584" r="4.0"/>
<circle cx="376" cy="584" r="4.26"/>
<circle cx="392" cy="584" r="3.66"/>
<circle cx="408" cy="584" r="3.57"/>
<circle cx="424" cy="584" r="3.41"/>
<circle cx="440" cy="584" r="3.57"/>
<circle cx="456" cy="584" r="3.59"/>
<circle cx="472" cy="584" r="3.81"/>
<circle cx="488" cy="584" r="3.91"/>
<circle cx="504" cy="584" r="3.85"/>
<circle cx="520" cy="584" r="3.91"/>
<circle cx="536" cy="584" r="4.02"/>
<circle cx="552" cy="584" r="4.2"/>
<circle cx="568" cy="584" r="3.89"/>
<circle cx="584" cy="584" r="4.34"/>
<circle cx="600" cy="584" r="4.15"/>
<circle cx="616" cy="584" r="4.03"/>
<circle cx="632" cy="584" r="4.11"/>
<circle cx="648" cy="584" r="4.38"/>
<circle cx="664" cy="584" r="4.46"/>
<circle cx="680" cy="584" r="3.99"/>
<circle cx="696" cy="584" r="3.88"/>
<circle cx="712" cy="584" r="3.93"/>
<circle cx="728" cy="584" r="3.66"/>
<circle cx="744" cy="584" r="3.59"/>
<circle cx="760" cy="584" r="3.64"/>
<circle cx="776" cy="584" r="3.49"/>
<circle cx="792" cy="584" r="3.4"/>
<circle cx="808" cy="584" r="3.14"/>
<circle cx="88" cy="600" r="3.6"/>
<circle cx="104" cy="600" r="3.49"/>
<circle cx="120" cy="600" r="3.51"/>
<circle cx="136" cy="600" r="3.6"/>
<circle cx="152" cy="600" r="3.77"/>
<circle cx="168" cy="600" r="3.92"/>
<circle cx="184" cy="600" r="3.87"/>
<circle cx="200" cy="600" r="4.05"/>
<circle cx="216" cy="600" r="4.34"/>
<circle cx="232" cy="600" r="4.12"/>
<circle cx="248" cy="600" r="4.41"/>
<circle cx="264" cy="600" r="4.25"/>
<circle cx="280" cy="600" r="4.03"/>
<circle cx="296" cy="600" r="4.03"/>
<circle cx="312" cy="600" r="4.04"/>
<circle cx="328" cy="600" r="4.23"/>
<circle cx="344" cy="600" r="4.11"/>
<circle cx="360" cy="600" r="3.73"/>
<circle cx="376" cy="600" r="4.09"/>
<circle cx="392" cy="600" r="3.91"/>
<circle cx="408" cy="600" r="4.01"/>
<circle cx="424" cy="600" r="4.3"/>
<circle cx="440" cy="600" r="4.0"/>
<circle cx="456" cy="600" r="4.49"/>
<circle cx="472" cy="600" r="4.26"/>
<circle cx="488" cy="600" r="4.54"/>
<circle cx="504" cy="600" r="3.95"/>
<circle cx="520" cy="600" r="3.91"/>
<circle cx="536" cy="600" r="3.99"/>
<circle cx="552" cy="600" r="4.05"/>
<circle cx="568" cy="600" r="4.01"/>
<circle cx="584" cy="600" r="3.86"/>
<circle cx="600" cy="600" r="3.82"/>
<circle cx="616" cy="600" r="4.03"/>
<circle cx="632" cy="600" r="4.38"/>
<circle cx="648" cy="600" r="4.42"/>
<circle cx="664" cy="600" r="4.34"/>
<circle cx="680" cy="600" r="4.12"/>
<circle cx="696" cy="600" r="4.26"/>
<circle cx="712" cy="600" r="3.88"/>
<circle cx="728" cy="600" r="4.11"/>
<circle cx="744" cy="600" r="4.3"/>
<circle cx="760" cy="600" r="4.37"/>
<circle cx="776" cy="600" r="3.98"/>
<circle cx="792" cy="600" r="3.57"/>
<circle cx="88" cy="616" r="3.25"/>
<circle cx="104" cy="616" r="3.69"/>
<circle cx="120" cy="616" r="4.11"/>
<circle cx="136" cy="616" r="4.04"/>
<circle cx="152" cy="616" r="3.78"/>
<circle cx="168" cy="616" r="3.72"/>
<circle cx="184" cy="616" r="3.8"/>
<circle cx="200" cy="616" r="4.09"/>
<circle cx="216" cy="616" r="4.17"/>
<circle cx="232" cy="616" r="4.1"/>
<circle cx="248" cy="616" r="4.11"/>
<circle cx="264" cy="616" r="4.17"/>
<circle cx="280" cy="616" r="4.17"/>
<circle cx="296" cy="616" r="4.08"/>
<circle cx="312" cy="616" r="4.02"/>
<circle cx="328" cy="616" r="4.15"/>
<circle cx="344" cy="616" r="4.4"/>
<circle cx="360" cy="616" r="3.92"/>
<circle cx="376" cy="616" r="3.75"/>
<circle cx="392" cy="616" r="4.21"/>
<circle cx="408" cy="616" r="4.43"/>
<circle cx="424" cy="616" r="4.24"/>
<circle cx="440" cy="616" r="4.23"/>
<circle cx="456" cy="616" r="4.39"/>
<circle cx="472" cy="616" r="3.95"/>
<circle cx="488" cy="616" r="4.28"/>
<circle cx="504" cy="616" r="4.0"/>
<circle cx="520" cy="616" r="4.01"/>
<circle cx="536" cy="616" r="4.17"/>
<circle cx="552" cy="616" r="4.26"/>
<circle cx="568" cy="616" r="4.53"/>
<circle cx="584" cy="616" r="4.29"/>
<circle cx="600" cy="616" r="4.2"/>
<circle cx="616" cy="616" r="4.37"/>
<circle cx="632" cy="616" r="4.35"/>
<circle cx="648" cy="616" r="4.24"/>
<circle cx="664" cy="616" r="4.51"/>
<circle cx="680" cy="616" r="4.24"/>
<circle cx="696" cy="616" r="4.34"/>
<circle cx="712" cy="616" r="4.18"/>
<circle cx="728" cy="616" r="4.01"/>
<circle cx="744" cy="616" r="3.64"/>
<circle cx="760" cy="616" r="4.07"/>
<circle cx="776" cy="616" r="3.82"/>
<circle cx="792" cy="616" r="3.78"/>
<circle cx="808" cy="616" r="3.26"/>
<circle cx="104" cy="632" r="3.35"/>
<circle cx="120" cy="632" r="4.43"/>
<circle cx="136" cy="632" r="4.33"/>
<circle cx="152" cy="632" r="4.17"/>
<circle cx="168" cy="632" r="3.9"/>
<circle cx="184" cy="632" r="4.23"/>
<circle cx="200" cy="632" r="4.15"/>
<circle cx="216" cy="632" r="4.16"/>
<circle cx="232" cy="632" r="4.38"/>
<circle cx="248" cy="632" r="3.92"/>
<circle cx="264" cy="632" r="3.5"/>
<circle cx="280" cy="632" r="3.8"/>
<circle cx="296" cy="632" r="3.82"/>
<circle cx="312" cy="632" r="3.81"/>
<circle cx="328" cy="632" r="4.13"/>
<circle cx="344" cy="632" r="4.39"/>
<circle cx="360" cy="632" r="4.02"/>
<circle cx="376" cy="632" r="4.14"/>
<circle cx="392" cy="632" r="4.28"/>
<circle cx="408" cy="632" r="4.14"/>
<circle cx="424" cy="632" r="3.9"/>
<circle cx="440" cy="632" r="4.12"/>
<circle cx="456" cy="632" r="4.13"/>
<circle cx="472" cy="632" r="4.12"/>
<circle cx="488" cy="632" r="4.05"/>
<circle cx="504" cy="632" r="4.37"/>
<circle cx="520" cy="632" r="4.34"/>
<circle cx="536" cy="632" r="4.39"/>
<circle cx="552" cy="632" r="4.48"/>
<circle cx="568" cy="632" r="4.16"/>
<circle cx="584" cy="632" r="4.27"/>
<circle cx="600" cy="632" r="4.24"/>
<circle cx="616" cy="632" r="4.53"/>
<circle cx="632" cy="632" r="4.52"/>
<circle cx="648" cy="632" r="4.11"/>
<circle cx="664" cy="632" r="4.09"/>
<circle cx="680" cy="632" r="4.03"/>
<circle cx="696" cy="632" r="4.38"/>
<circle cx="712" cy="632" r="4.15"/>
<circle cx="728" cy="632" r="4.04"/>
<circle cx="744" cy="632" r="4.1"/>
<circle cx="760" cy="632" r="4.0"/>
<circle cx="776" cy="632" r="4.03"/>
<circle cx="792" cy="632" r="3.94"/>
<circle cx="808" cy="632" r="3.7"/>
<circle cx="120" cy="648" r="4.28"/>
<circle cx="136" cy="648" r="4.1"/>
<circle cx="152" cy="648" r="4.32"/>
<circle cx="168" cy="648" r="4.23"/>
<circle cx="184" cy="648" r="3.91"/>
<circle cx="200" cy="648" r="3.92"/>
<circle cx="216" cy="648" r="4.06"/>
<circle cx="232" cy="648" r="4.11"/>
<circle cx="248" cy="648" r="3.88"/>
<circle cx="264" cy="648" r="3.77"/>
<circle cx="280" cy="648" r="3.67"/>
<circle cx="296" cy="648" r="4.12"/>
<circle cx="312" cy="648" r="4.22"/>
<circle cx="328" cy="648" r="4.1"/>
<circle cx="344" cy="648" r="4.36"/>
<circle cx="360" cy="648" r="4.33"/>
<circle cx="376" cy="648" r="4.24"/>
<circle cx="392" cy="648" r="4.47"/>
<circle cx="408" cy="648" r="4.15"/>
<circle cx="424" cy="648" r="4.46"/>
<circle cx="440" cy="648" r="4.12"/>
<circle cx="456" cy="648" r="4.35"/>
<circle cx="472" cy="648" r="4.19"/>
<circle cx="488" cy="648" r="4.24"/>
<circle cx="504" cy="648" r="3.96"/>
<circle cx="520" cy="648" r="4.22"/>
<circle cx="536" cy="648" r="4.28"/>
<circle cx="552" cy="648" r="4.19"/>
<circle cx="568" cy="648" r="4.4"/>
<circle cx="584" cy="648" r="4.08"/>
<circle cx="600" cy="648" r="3.96"/>
<circle cx="616" cy="648" r="3.81"/>
<circle cx="632" cy="648" r="4.27"/>
<circle cx="648" cy="648" r="4.3"/>
<circle cx="664" cy="648" r="4.47"/>
<circle cx="680" cy="648" r="4.05"/>
<circle cx="696" cy="648" r="3.78"/>
<circle cx="712" cy="648" r="3.81"/>
<circle cx="728" cy="648" r="3.72"/>
<circle cx="744" cy="648" r="3.63"/>
<circle cx="760" cy="648" r="3.51"/>
<circle cx="776" cy="648" r="3.88"/>
<circle cx="792" cy="648" r="3.89"/>
<circle cx="136" cy="664" r="3.86"/>
<circle cx="152" cy="664" r="3.67"/>
<circle cx="168" cy="664" r="3.83"/>
<circle cx="184" cy="664" r="3.61"/>
<circle cx="200" cy="664" r="3.76"/>
<circle cx="216" cy="664" r="3.7"/>
<circle cx="232" cy="664" r="3.67"/>
<circle cx="248" cy="664" r="3.71"/>
<circle cx="264" cy="664" r="3.88"/>
<circle cx="280" cy="664" r="4.3"/>
<circle cx="296" cy="664" r="4.3"/>
<circle cx="312" cy="664" r="3.97"/>
<circle cx="328" cy="664" r="4.28"/>
<circle cx="344" cy="664" r="4.08"/>
<circle cx="360" cy="664" r="4.32"/>
<circle cx="376" cy="664" r="4.3"/>
<circle cx="392" cy="664" r="4.14"/>
<circle cx="408" cy="664" r="4.08"/>
<circle cx="424" cy="664" r="4.21"/>
<circle cx="440" cy="664" r="4.14"/>
<circle cx="456" cy="664" r="3.93"/>
<circle cx="472" cy="664" r="3.69"/>
<circle cx="488" cy="664" r="3.81"/>
<circle cx="504" cy="664" r="4.1"/>
<circle cx="520" cy="664" r="3.98"/>
<circle cx="536" cy="664" r="3.97"/>
<circle cx="552" cy="664" r="4.45"/>
<circle cx="568" cy="664" r="4.09"/>
<circle cx="584" cy="664" r="4.36"/>
<circle cx="600" cy="664" r="4.22"/>
<circle cx="616" cy="664" r="4.29"/>
<circle cx="632" cy="664" r="4.43"/>
<circle cx="648" cy="664" r="4.18"/>
<circle cx="664" cy="664" r="4.46"/>
<circle cx="680" cy="664" r="4.26"/>
<circle cx="696" cy="664" r="3.99"/>
<circle cx="712" cy="664" r="3.87"/>
<circle cx="728" cy="664" r="3.79"/>
<circle cx="744" cy="664" r="3.49"/>
<circle cx="760" cy="664" r="3.56"/>
<circle cx="776" cy="664" r="3.38"/>
<circle cx="792" cy="664" r="3.49"/>
<circle cx="152" cy="680" r="3.59"/>
<circle cx="168" cy="680" r="3.66"/>
<circle cx="184" cy="680" r="3.9"/>
<circle cx="200" cy="680" r="3.81"/>
<circle cx="216" cy="680" r="3.88"/>
<circle cx="232" cy="680" r="4.22"/>
<circle cx="248" cy="680" r="4.27"/>
<circle cx="264" cy="680" r="4.35"/>
<circle cx="280" cy="680" r="4.46"/>
<circle cx="296" cy="680" r="4.44"/>
<circle cx="312" cy="680" r="3.75"/>
<circle cx="328" cy="680" r="3.66"/>
<circle cx="344" cy="680" r="3.96"/>
<circle cx="360" cy="680" r="4.43"/>
<circle cx="376" cy="680" r="4.07"/>
<circle cx="392" cy="680" r="4.23"/>
<circle cx="408" cy="680" r="4.04"/>
<circle cx="424" cy="680" r="4.09"/>
<circle cx="440" cy="680" r="3.81"/>
<circle cx="456" cy="680" r="4.3"/>
<circle cx="472" cy="680" r="4.1"/>
<circle cx="488" cy="680" r="3.67"/>
<circle cx="504" cy="680" r="3.63"/>
<circle cx="520" cy="680" r="3.65"/>
<circle cx="536" cy="680" r="3.96"/>
<circle cx="552" cy="680" r="3.76"/>
<circle cx="568" cy="680" r="4.07"/>
<circle cx="584" cy="680" r="3.93"/>
<circle cx="600" cy="680" r="3.93"/>
<circle cx="616" cy="680" r="4.11"/>
<circle cx="632" cy="680" r="4.35"/>
<circle cx="648" cy="680" r="4.12"/>
<circle cx="664" cy="680" r="3.97"/>
<circle cx="680" cy="680" r="4.24"/>
<circle cx="696" cy="680" r="3.88"/>
<circle cx="712" cy="680" r="3.72"/>
<circle cx="728" cy="680" r="3.8"/>
<circle cx="744" cy="680" r="3.78"/>
<circle cx="760" cy="680" r="3.91"/>
<circle cx="776" cy="680" r="4.01"/>
<circle cx="152" cy="696" r="3.11"/>
<circle cx="168" cy="696" r="3.32"/>
<circle cx="184" cy="696" r="3.77"/>
<circle cx="200" cy="696" r="4.02"/>
<circle cx="216" cy="696" r="4.06"/>
<circle cx="232" cy="696" r="3.99"/>
<circle cx="248" cy="696" r="3.98"/>
<circle cx="264" cy="696" r="4.33"/>
<circle cx="280" cy="696" r="4.0"/>
<circle cx="296" cy="696" r="3.72"/>
<circle cx="312" cy="696" r="4.14"/>
<circle cx="328" cy="696" r="4.17"/>
<circle cx="344" cy="696" r="3.98"/>
<circle cx="360" cy="696" r="4.33"/>
<circle cx="376" cy="696" r="4.07"/>
<circle cx="392" cy="696" r="4.14"/>
<circle cx="408" cy="696" r="4.1"/>
<circle cx="424" cy="696" r="4.09"/>
<circle cx="440" cy="696" r="3.87"/>
<circle cx="456" cy="696" r="4.42"/>
<circle cx="472" cy="696" r="3.68"/>
<circle cx="488" cy="696" r="3.58"/>
<circle cx="504" cy="696" r="3.88"/>
<circle cx="520" cy="696" r="4.0"/>
<circle cx="536" cy="696" r="4.23"/>
<circle cx="552" cy="696" r="4.05"/>
<circle cx="568" cy="696" r="4.03"/>
<circle cx="584" cy="696" r="4.24"/>
<circle cx="600" cy="696" r="4.04"/>
<circle cx="616" cy="696" r="3.9"/>
<circle cx="632" cy="696" r="3.8"/>
<circle cx="648" cy="696" r="4.21"/>
<circle cx="664" cy="696" r="4.02"/>
<circle cx="680" cy="696" r="3.83"/>
<circle cx="696" cy="696" r="3.77"/>
<circle cx="712" cy="696" r="4.0"/>
<circle cx="728" cy="696" r="3.75"/>
<circle cx="744" cy="696" r="3.55"/>
<circle cx="760" cy="696" r="3.51"/>
<circle cx="776" cy="696" r="3.61"/>
<circle cx="184" cy="712" r="3.91"/>
<circle cx="200" cy="712" r="4.03"/>
<circle cx="216" cy="712" r="4.26"/>
<circle cx="232" cy="712" r="4.02"/>
<circle cx="248" cy="712" r="3.88"/>
<circle cx="264" cy="712" r="3.72"/>
<circle cx="280" cy="712" r="3.99"/>
<circle cx="296" cy="712" r="3.94"/>
<circle cx="312" cy="712" r="4.1"/>
<circle cx="328" cy="712" r="4.08"/>
<circle cx="344" cy="712" r="3.93"/>
<circle cx="360" cy="712" r="4.02"/>
<circle cx="376" cy="712" r="4.28"/>
<circle cx="392" cy="712" r="4.39"/>
<circle cx="408" cy="712" r="4.21"/>
<circle cx="424" cy="712" r="4.07"/>
<circle cx="440" cy="712" r="3.72"/>
<circle cx="456" cy="712" r="3.94"/>
<circle cx="472" cy="712" r="4.09"/>
<circle cx="488" cy="712" r="3.87"/>
<circle cx="504" cy="712" r="3.51"/>
<circle cx="520" cy="712" r="3.98"/>
<circle cx="536" cy="712" r="3.76"/>
<circle cx="552" cy="712" r="3.71"/>
<circle cx="568" cy="712" r="4.58"/>
<circle cx="584" cy="712" r="4.13"/>
<circle cx="600" cy="712" r="4.09"/>
<circle cx="616" cy="712" r="4.29"/>
<circle cx="632" cy="712" r="4.2"/>
<circle cx="648" cy="712" r="4.34"/>
<circle cx="664" cy="712" r="4.1"/>
<circle cx="680" cy="712" r="3.81"/>
<circle cx="696" cy="712" r="4.04"/>
<circle cx="712" cy="712" r="4.07"/>
<circle cx="728" cy="712" r="3.93"/>
<circle cx="744" cy="712" r="3.74"/>
<circle cx="760" cy="712" r="3.31"/>
<circle cx="776" cy="712" r="3.15"/>
<circle cx="184" cy="728" r="3.55"/>
<circle cx="200" cy="728" r="4.07"/>
<circle cx="216" cy="728" r="3.61"/>
<circle cx="232" cy="728" r="4.02"/>
<circle cx="248" cy="728" r="4.18"/>
<circle cx="264" cy="728" r="4.02"/>
<circle cx="280" cy="728" r="4.61"/>
<circle cx="296" cy="728" r="4.06"/>
<circle cx="312" cy="728" r="3.87"/>
<circle cx="328" cy="728" r="4.09"/>
<circle cx="344" cy="728" r="4.25"/>
<circle cx="360" cy="728" r="4.27"/>
<circle cx="376" cy="728" r="4.18"/>
<circle cx="392" cy="728" r="4.01"/>
<circle cx="408" cy="728" r="4.19"/>
<circle cx="424" cy="728" r="4.13"/>
<circle cx="440" cy="728" r="4.23"/>
<circle cx="456" cy="728" r="4.22"/>
<circle cx="472" cy="728" r="4.15"/>
<circle cx="488" cy="728" r="3.69"/>
<circle cx="504" cy="728" r="3.5"/>
<circle cx="520" cy="728" r="4.04"/>
<circle cx="536" cy="728" r="4.01"/>
<circle cx="552" cy="728" r="4.2"/>
<circle cx="568" cy="728" r="4.32"/>
<circle cx="584" cy="728" r="4.05"/>
<circle cx="600" cy="728" r="4.42"/>
<circle cx="616" cy="728" r="3.91"/>
<circle cx="632" cy="728" r="4.5"/>
<circle cx="648" cy="728" r="4.11"/>
<circle cx="664" cy="728" r="4.47"/>
<circle cx="680" cy="728" r="4.28"/>
<circle cx="696" cy="728" r="4.02"/>
<circle cx="712" cy="728" r="3.96"/>
<circle cx="728" cy="728" r="3.77"/>
<circle cx="744" cy="728" r="4.0"/>
<circle cx="760" cy="728" r="3.71"/>
<circle cx="200" cy="744" r="3.68"/>
<circle cx="216" cy="744" r="3.69"/>
<circle cx="232" cy="744" r="3.94"/>
<circle cx="248" cy="744" r="3.8"/>
<circle cx="264" cy="744" r="3.92"/>
<circle cx="280" cy="744" r="4.03"/>
<circle cx="296" cy="744" r="4.13"/>
<circle cx="312" cy="744" r="4.14"/>
<circle cx="328" cy="744" r="4.06"/>
<circle cx="344" cy="744" r="4.16"/>
<circle cx="360" cy="744" r="3.84"/>
<circle cx="376" cy="744" r="4.01"/>
<circle cx="392" cy="744" r="4.13"/>
<circle cx="408" cy="744" r="3.99"/>
<circle cx="424" cy="744" r="4.26"/>
<circle cx="440" cy="744" r="3.65"/>
<circle cx="456" cy="744" r="4.23"/>
<circle cx="472" cy="744" r="4.24"/>
<circle cx="488" cy="744" r="4.02"/>
<circle cx="504" cy="744" r="3.72"/>
<circle cx="520" cy="744" r="3.79"/>
<circle cx="536" cy="744" r="4.0"/>
<circle cx="552" cy="744" r="4.4"/>
<circle cx="568" cy="744" r="4.3"/>
<circle cx="584" cy="744" r="4.24"/>
<circle cx="600" cy="744" r="4.36"/>
<circle cx="616" cy="744" r="4.54"/>
<circle cx="632" cy="744" r="4.41"/>
<circle cx="648" cy="744" r="4.08"/>
<circle cx="664" cy="744" r="3.78"/>
<circle cx="680" cy="744" r="4.28"/>
<circle cx="696" cy="744" r="4.22"/>
<circle cx="712" cy="744" r="4.12"/>
<circle cx="728" cy="744" r="3.84"/>
<circle cx="744" cy="744" r="3.58"/>
<circle cx="760" cy="744" r="3.55"/>
<circle cx="216" cy="760" r="4.09"/>
<circle cx="232" cy="760" r="4.21"/>
<circle cx="248" cy="760" r="4.24"/>
<circle cx="264" cy="760" r="3.96"/>
<circle cx="280" cy="760" r="4.15"/>
<circle cx="296" cy="760" r="4.01"/>
<circle cx="312" cy="760" r="4.22"/>
<circle cx="328" cy="760" r="4.27"/>
<circle cx="344" cy="760" r="4.08"/>
<circle cx="360" cy="760" r="4.19"/>
<circle cx="376" cy="760" r="4.25"/>
<circle cx="392" cy="760" r="4.4"/>
<circle cx="408" cy="760" r="4.09"/>
<circle cx="424" cy="760" r="4.61"/>
<circle cx="440" cy="760" r="4.32"/>
<circle cx="456" cy="760" r="4.38"/>
<circle cx="472" cy="760" r="4.3"/>
<circle cx="488" cy="760" r="4.03"/>
<circle cx="504" cy="760" r="3.98"/>
<circle cx="520" cy="760" r="4.32"/>
<circle cx="536" cy="760" r="4.58"/>
<circle cx="552" cy="760" r="4.23"/>
<circle cx="568" cy="760" r="4.56"/>
<circle cx="584" cy="760" r="4.69"/>
<circle cx="600" cy="760" r="4.54"/>
<circle cx="616" cy="760" r="4.21"/>
<circle cx="632" cy="760" r="4.35"/>
<circle cx="648" cy="760" r="4.36"/>
<circle cx="664" cy="760" r="4.17"/>
<circle cx="680" cy="760" r="4.5"/>
<circle cx="696" cy="760" r="4.07"/>
<circle cx="712" cy="760" r="4.45"/>
<circle cx="728" cy="760" r="3.99"/>
<circle cx="744" cy="760" r="3.67"/>
<circle cx="760" cy="760" r="3.16"/>
<circle cx="232" cy="776" r="3.43"/>
<circle cx="248" cy="776" r="3.88"/>
<circle cx="264" cy="776" r="4.05"/>
<circle cx="280" cy="776" r="4.33"/>
<circle cx="296" cy="776" r="3.9"/>
<circle cx="312" cy="776" r="3.71"/>
<circle cx="328" cy="776" r="4.0"/>
<circle cx="344" cy="776" r="3.85"/>
<circle cx="360" cy="776" r="4.28"/>
<circle cx="376" cy="776" r="3.64"/>
<circle cx="392" cy="776" r="4.09"/>
<circle cx="408" cy="776" r="4.04"/>
<circle cx="424" cy="776" r="4.16"/>
<circle cx="440" cy="776" r="4.1"/>
<circle cx="456" cy="776" r="4.04"/>
<circle cx="472" cy="776" r="4.21"/>
<circle cx="488" cy="776" r="4.68"/>
<circle cx="504" cy="776" r="4.21"/>
<circle cx="520" cy="776" r="4.22"/>
<circle cx="536" cy="776" r="4.7"/>
<circle cx="552" cy="776" r="4.24"/>
<circle cx="568" cy="776" r="4.17"/>
<circle cx="584" cy="776" r="3.8"/>
<circle cx="600" cy="776" r="4.34"/>
<circle cx="616" cy="776" r="4.01"/>
<circle cx="632" cy="776" r="4.39"/>
<circle cx="648" cy="776" r="4.18"/>
<circle cx="664" cy="776" r="4.14"/>
<circle cx="680" cy="776" r="4.18"/>
<circle cx="696" cy="776" r="4.59"/>
<circle cx="712" cy="776" r="4.14"/>
<circle cx="728" cy="776" r="3.95"/>
<circle cx="744" cy="776" r="3.32"/>
<circle cx="232" cy="792" r="3.07"/>
<circle cx="248" cy="792" r="4.01"/>
<circle cx="264" cy="792" r="3.61"/>
<circle cx="280" cy="792" r="3.89"/>
<circle cx="296" cy="792" r="3.58"/>
<circle cx="312" cy="792" r="3.71"/>
<circle cx="328" cy="792" r="4.06"/>
<circle cx="344" cy="792" r="4.04"/>
<circle cx="360" cy="792" r="3.84"/>
<circle cx="376" cy="792" r="3.74"/>
<circle cx="392" cy="792" r="4.31"/>
<circle cx="408" cy="792" r="3.71"/>
<circle cx="424" cy="792" r="4.15"/>
<circle cx="440" cy="792" r="3.96"/>
<circle cx="456" cy="792" r="3.56"/>
<circle cx="472" cy="792" r="3.74"/>
<circle cx="488" cy="792" r="4.04"/>
<circle cx="504" cy="792" r="4.06"/>
<circle cx="520" cy="792" r="4.17"/>
<circle cx="536" cy="792" r="4.23"/>
<circle cx="552" cy="792" r="4.56"/>
<circle cx="568" cy="792" r="4.12"/>
<circle cx="584" cy="792" r="4.21"/>
<circle cx="600" cy="792" r="4.57"/>
<circle cx="616" cy="792" r="4.29"/>
<circle cx="632" cy="792" r="4.3"/>
<circle cx="648" cy="792" r="4.06"/>
<circle cx="664" cy="792" r="4.36"/>
<circle cx="680" cy="792" r="4.14"/>
<circle cx="696" cy="792" r="4.1"/>
<circle cx="712" cy="792" r="4.16"/>
<circle cx="728" cy="792" r="3.81"/>
<circle cx="744" cy="792" r="3.53"/>
<circle cx="280" cy="808" r="3.2"/>
<circle cx="296" cy="808" r="3.26"/>
<circle cx="312" cy="808" r="3.13"/>
<circle cx="328" cy="808" r="3.72"/>
<circle cx="344" cy="808" r="3.54"/>
<circle cx="360" cy="808" r="3.56"/>
<circle cx="376" cy="808" r="3.84"/>
<circle cx="392" cy="808" r="3.91"/>
<circle cx="408" cy="808" r="3.79"/>
<circle cx="424" cy="808" r="4.07"/>
<circle cx="440" cy="808" r="3.83"/>
<circle cx="456" cy="808" r="3.37"/>
<circle cx="472" cy="808" r="3.81"/>
<circle cx="488" cy="808" r="4.03"/>
<circle cx="504" cy="808" r="3.94"/>
<circle cx="520" cy="808" r="4.15"/>
<circle cx="536" cy="808" r="4.14"/>
<circle cx="552" cy="808" r="3.91"/>
<circle cx="568" cy="808" r="3.58"/>
<circle cx="584" cy="808" r="4.08"/>
<circle cx="600" cy="808" r="4.16"/>
<circle cx="616" cy="808" r="3.73"/>
<circle cx="632" cy="808" r="3.98"/>
<circle cx="648" cy="808" r="4.25"/>
<circle cx="664" cy="808" r="4.02"/>
<circle cx="680" cy="808" r="4.37"/>
<circle cx="696" cy="808" r="3.97"/>
<circle cx="712" cy="808" r="3.55"/>
<circle cx="728" cy="808" r="3.65"/>
<circle cx="392" cy="824" r="3.11"/>
<circle cx="424" cy="824" r="3.27"/>
<circle cx="440" cy="824" r="3.86"/>
<circle cx="456" cy="824" r="3.63"/>
<circle cx="472" cy="824" r="3.65"/>
<circle cx="488" cy="824" r="3.73"/>
<circle cx="504" cy="824" r="3.6"/>
<circle cx="520" cy="824" r="3.74"/>
<circle cx="536" cy="824" r="3.59"/>
<circle cx="552" cy="824" r="3.72"/>
<circle cx="568" cy="824" r="3.7"/>
<circle cx="584" cy="824" r="4.3"/>
<circle cx="600" cy="824" r="4.15"/>
<circle cx="616" cy="824" r="4.02"/>
<circle cx="632" cy="824" r="4.13"/>
<circle cx="648" cy="824" r="3.97"/>
<circle cx="664" cy="824" r="3.97"/>
<circle cx="680" cy="824" r="4.11"/>
<circle cx="696" cy="824" r="4.06"/>
<circle cx="712" cy="824" r="4.08"/>
<circle cx="728" cy="824" r="3.74"/>
<circle cx="744" cy="824" r="3.3"/>
<circle cx="552" cy="840" r="3.11"/>
<circle cx="568" cy="840" r="3.29"/>
<circle cx="584" cy="840" r="3.52"/>
<circle cx="600" cy="840" r="3.54"/>
<circle cx="616" cy="840" r="3.26"/>
<circle cx="632" cy="840" r="3.58"/>
<circle cx="648" cy="840" r="3.49"/>
<circle cx="664" cy="840" r="3.83"/>
<circle cx="680" cy="840" r="3.91"/>
<circle cx="696" cy="840" r="3.58"/>
<circle cx="712" cy="840" r="3.75"/>
<circle cx="728" cy="840" r="3.47"/>
<circle cx="744" cy="840" r="3.24"/>
<circle cx="680" cy="856" r="3.1"/>
<circle cx="696" cy="856" r="3.3"/>
<circle cx="712" cy="856" r="3.83"/>
<circle cx="728" cy="856" r="3.42"/>
</svg>