<svg xmlns="http://www.w3.org/2000/svg" viewBox="0 0 1200 630" fill="none">
  <defs>
    <linearGradient id="bg" x1="0" y1="0" x2="1200" y2="630" gradientUnits="userSpaceOnUse">
      <stop offset="0" stop-color="#110f0c"/>
      <stop offset="1" stop-color="#0a0807"/>
    </linearGradient>
    <linearGradient id="gold" x1="0" y1="0" x2="1" y2="1">
      <stop offset="0" stop-color="#e0c79e"/>
      <stop offset="0.5" stop-color="#d4b483"/>
      <stop offset="1" stop-color="#c39a5e"/>
    </linearGradient>
    <radialGradient id="glow" cx="0.5" cy="0" r="0.8">
      <stop offset="0" stop-color="#c39a5e" stop-opacity="0.22"/>
      <stop offset="1" stop-color="#c39a5e" stop-opacity="0"/>
    </radialGradient>
  </defs>
  <rect width="1200" height="630" fill="url(#bg)"/>
  <rect width="1200" height="630" fill="url(#glow)"/>
  <g opacity="0.12" stroke="#d4b483">
    <line x1="0" y1="157" x2="1200" y2="157"/>
    <line x1="0" y1="315" x2="1200" y2="315"/>
    <line x1="0" y1="472" x2="1200" y2="472"/>
    <line x1="300" y1="0" x2="300" y2="630"/>
    <line x1="600" y1="0" x2="600" y2="630"/>
    <line x1="900" y1="0" x2="900" y2="630"/>
  </g>

  <!-- Logo mark -->
  <g transform="translate(80,72)">
    <rect width="64" height="64" rx="16" fill="#0a0807" stroke="#d4b483" stroke-opacity="0.5" stroke-width="2"/>
    <g transform="translate(12,12) scale(1)">
      <path d="M11 29V11h7.2c3.4 0 5.6 2.1 5.6 5.2 0 3.1-2.2 5.2-5.6 5.2H14.6" stroke="url(#gold)" stroke-width="2.4" stroke-linecap="round" stroke-linejoin="round"/>
      <path d="M24 29l5-6-5-6" stroke="url(#gold)" stroke-width="2.4" stroke-linecap="round" stroke-linejoin="round" opacity="0.85"/>
      <circle cx="29.5" cy="11.5" r="2" fill="url(#gold)"/>
    </g>
    <text x="84" y="42" font-family="Georgia, serif" font-size="34" fill="#faf7f1">PPK Real Estate</text>
  </g>

  <text x="80" y="330" font-family="Georgia, 'Times New Roman', serif" font-size="84" font-weight="400" fill="#faf7f1" letter-spacing="-2">Find the address</text>
  <text x="80" y="420" font-family="Georgia, 'Times New Roman', serif" font-size="84" font-weight="400" letter-spacing="-2"><tspan fill="#faf7f1">that becomes a </tspan><tspan fill="url(#gold)" font-style="italic">legacy.</tspan></text>

  <text x="80" y="510" font-family="Arial, sans-serif" font-size="28" fill="#9c9486">Boutique property advisory · Institutional research · White-glove brokerage</text>

  <rect x="80" y="548" width="220" height="2" fill="url(#gold)"/>
</svg>
